<svg width="595" height="72" viewBox="0 0 595 72" fill="none" xmlns="http://www.w3.org/2000/svg">
<path d="M67.1818 36.0909C67.1818 43.7727 65.7045 50.2841 62.75 55.625C59.7955 60.9659 55.7955 65.0227 50.75 67.7955C45.7273 70.5682 40.0909 71.9545 33.8409 71.9545C27.5682 71.9545 21.9205 70.5568 16.8977 67.7614C11.875 64.9659 7.88636 60.9091 4.93182 55.5909C2 50.25 0.534091 43.75 0.534091 36.0909C0.534091 28.4091 2 21.8977 4.93182 16.5568C7.88636 11.2159 11.875 7.15909 16.8977 4.38636C21.9205 1.61363 27.5682 0.22727 33.8409 0.22727C40.0909 0.22727 45.7273 1.61363 50.75 4.38636C55.7955 7.15909 59.7955 11.2159 62.75 16.5568C65.7045 21.8977 67.1818 28.4091 67.1818 36.0909ZM49.9318 36.0909C49.9318 31.5455 49.2841 27.7045 47.9886 24.5682C46.7159 21.4318 44.875 19.0568 42.4659 17.4432C40.0795 15.8295 37.2045 15.0227 33.8409 15.0227C30.5 15.0227 27.625 15.8295 25.2159 17.4432C22.8068 19.0568 20.9545 21.4318 19.6591 24.5682C18.3864 27.7045 17.75 31.5455 17.75 36.0909C17.75 40.6364 18.3864 44.4773 19.6591 47.6136C20.9545 50.75 22.8068 53.125 25.2159 54.7386C27.625 56.3523 30.5 57.1591 33.8409 57.1591C37.2045 57.1591 40.0795 56.3523 42.4659 54.7386C44.875 53.125 46.7159 50.75 47.9886 47.6136C49.2841 44.4773 49.9318 40.6364 49.9318 36.0909ZM93.9091 1.18182V71H77.0341V1.18182H93.9091ZM104.503 71V1.18182H121.378V57.2955H150.423V71H104.503ZM191.077 29.6818V42.5H158.759V29.6818H191.077ZM266.222 26.4773H249.176C248.949 24.7273 248.483 23.1477 247.778 21.7386C247.074 20.3295 246.142 19.125 244.983 18.125C243.824 17.125 242.449 16.3636 240.858 15.8409C239.29 15.2955 237.551 15.0227 235.642 15.0227C232.256 15.0227 229.335 15.8523 226.881 17.5114C224.449 19.1705 222.574 21.5682 221.256 24.7045C219.96 27.8409 219.312 31.6364 219.312 36.0909C219.312 40.7273 219.972 44.6136 221.29 47.75C222.631 50.8636 224.506 53.2159 226.915 54.8068C229.347 56.375 232.222 57.1591 235.54 57.1591C237.403 57.1591 239.097 56.9205 240.619 56.4432C242.165 55.9659 243.517 55.2727 244.676 54.3636C245.858 53.4318 246.824 52.3068 247.574 50.9886C248.347 49.6477 248.881 48.1364 249.176 46.4545L266.222 46.5568C265.926 49.6477 265.028 52.6932 263.528 55.6932C262.051 58.6932 260.017 61.4318 257.426 63.9091C254.835 66.3636 251.676 68.3182 247.949 69.7727C244.244 71.2273 239.994 71.9545 235.199 71.9545C228.881 71.9545 223.222 70.5682 218.222 67.7955C213.244 65 209.313 60.9318 206.426 55.5909C203.54 50.25 202.097 43.75 202.097 36.0909C202.097 28.4091 203.562 21.8977 206.494 16.5568C209.426 11.2159 213.392 7.15909 218.392 4.38636C223.392 1.61363 228.994 0.22727 235.199 0.22727C239.426 0.22727 243.335 0.81818 246.926 2C250.517 3.15909 253.676 4.86363 256.403 7.11363C259.131 9.34091 261.347 12.0795 263.051 15.3295C264.756 18.5795 265.812 22.2955 266.222 26.4773ZM275.878 71V1.18182H324.56V14.8864H292.753V29.2045H322.071V42.9432H292.753V57.2955H324.56V71H275.878ZM335.128 71V1.18182H363.969C369.196 1.18182 373.707 2.20454 377.503 4.25C381.321 6.27272 384.264 9.10227 386.332 12.7386C388.401 16.3523 389.435 20.5568 389.435 25.3523C389.435 30.1705 388.378 34.3864 386.264 38C384.173 41.5909 381.185 44.375 377.298 46.3523C373.412 48.3295 368.798 49.3182 363.457 49.3182H345.662V36.0227H360.321C362.866 36.0227 364.991 35.5795 366.696 34.6932C368.423 33.8068 369.73 32.5682 370.616 30.9773C371.503 29.3636 371.946 27.4886 371.946 25.3523C371.946 23.1932 371.503 21.3295 370.616 19.7614C369.73 18.1705 368.423 16.9432 366.696 16.0795C364.969 15.2159 362.844 14.7841 360.321 14.7841H352.003V71H335.128ZM397.753 71V1.18182H426.866C432.094 1.18182 436.469 1.92045 439.991 3.39772C443.537 4.875 446.196 6.94318 447.969 9.60227C449.764 12.2614 450.662 15.3409 450.662 18.8409C450.662 21.5 450.105 23.875 448.991 25.9659C447.878 28.0341 446.344 29.75 444.389 31.1136C442.435 32.4773 440.173 33.4318 437.605 33.9773V34.6591C440.423 34.7955 443.026 35.5568 445.412 36.9432C447.821 38.3295 449.753 40.2614 451.207 42.7386C452.662 45.1932 453.389 48.1023 453.389 51.4659C453.389 55.2159 452.435 58.5682 450.526 61.5227C448.616 64.4545 445.855 66.7727 442.241 68.4773C438.628 70.1591 434.241 71 429.082 71H397.753ZM414.628 57.3977H425.06C428.719 57.3977 431.412 56.7045 433.139 55.3182C434.889 53.9318 435.764 52 435.764 49.5227C435.764 47.7273 435.344 46.1818 434.503 44.8864C433.662 43.5682 432.469 42.5568 430.923 41.8523C429.378 41.125 427.526 40.7614 425.366 40.7614H414.628V57.3977ZM414.628 29.8864H423.969C425.81 29.8864 427.446 29.5795 428.878 28.9659C430.31 28.3523 431.423 27.4659 432.219 26.3068C433.037 25.1477 433.446 23.75 433.446 22.1136C433.446 19.7727 432.616 17.9318 430.957 16.5909C429.298 15.25 427.06 14.5795 424.241 14.5795H414.628V29.8864ZM461.503 1.18182H478.344V41.4091H478.923L506.401 1.18182H520.923V71H504.048V30.7045H503.605L475.787 71H461.503V1.18182ZM594.909 26.4773H577.864C577.636 24.7273 577.17 23.1477 576.466 21.7386C575.761 20.3295 574.83 19.125 573.67 18.125C572.511 17.125 571.136 16.3636 569.545 15.8409C567.977 15.2955 566.239 15.0227 564.33 15.0227C560.943 15.0227 558.023 15.8523 555.568 17.5114C553.136 19.1705 551.261 21.5682 549.943 24.7045C548.648 27.8409 548 31.6364 548 36.0909C548 40.7273 548.659 44.6136 549.977 47.75C551.318 50.8636 553.193 53.2159 555.602 54.8068C558.034 56.375 560.909 57.1591 564.227 57.1591C566.091 57.1591 567.784 56.9205 569.307 56.4432C570.852 55.9659 572.205 55.2727 573.364 54.3636C574.545 53.4318 575.511 52.3068 576.261 50.9886C577.034 49.6477 577.568 48.1364 577.864 46.4545L594.909 46.5568C594.614 49.6477 593.716 52.6932 592.216 55.6932C590.739 58.6932 588.705 61.4318 586.114 63.9091C583.523 66.3636 580.364 68.3182 576.636 69.7727C572.932 71.2273 568.682 71.9545 563.886 71.9545C557.568 71.9545 551.909 70.5682 546.909 67.7955C541.932 65 538 60.9318 535.114 55.5909C532.227 50.25 530.784 43.75 530.784 36.0909C530.784 28.4091 532.25 21.8977 535.182 16.5568C538.114 11.2159 542.08 7.15909 547.08 4.38636C552.08 1.61363 557.682 0.22727 563.886 0.22727C568.114 0.22727 572.023 0.81818 575.614 2C579.205 3.15909 582.364 4.86363 585.091 7.11363C587.818 9.34091 590.034 12.0795 591.739 15.3295C593.443 18.5795 594.5 22.2955 594.909 26.4773Z" fill="url(#paint0_linear_104_3)"/>
<defs>
<linearGradient id="paint0_linear_104_3" x1="-4" y1="36" x2="600" y2="36" gradientUnits="userSpaceOnUse">
<stop/>
<stop offset="0.528846" stop-color="#FF5900"/>
</linearGradient>
</defs>
</svg>
